<?xml version="1.0" encoding="UTF-8" standalone="no" ?>
<!DOCTYPE svg PUBLIC "-//W3C//DTD SVG 1.1//EN" "http://www.w3.org/Graphics/SVG/1.1/DTD/svg11.dtd">
<svg xmlns="http://www.w3.org/2000/svg" xmlns:xlink="http://www.w3.org/1999/xlink" version="1.1" width="300" height="300" viewBox="0 0 300 300" xml:space="preserve">
<desc>Created with Fabric.js 5.3.0</desc>
<defs>
</defs>
<g transform="matrix(1 0 0 1 1312.44 788.98)" id="9rmF6GM9QaG7cE4tP2C6a"  >
<path style="stroke: rgb(0,0,0); stroke-width: 1; stroke-dasharray: none; stroke-linecap: butt; stroke-dashoffset: 0; stroke-linejoin: miter; stroke-miterlimit: 4; fill: rgb(255,255,255); fill-opacity: 0; fill-rule: nonzero; opacity: 1;" vector-effect="non-scaling-stroke"  transform=" translate(0.000005, 0)" d="M -13.7375 -10 L 26.2625 -10 L 26.2625 10 L -26.262510000000002 10" stroke-linecap="round" />
</g>
<g transform="matrix(1 0 0 1 150.05 149.25)" id="LDXGtmqjCeuDiWUH4z8gN"  >
<path style="stroke: rgb(0,0,0); stroke-width: 0; stroke-dasharray: none; stroke-linecap: butt; stroke-dashoffset: 0; stroke-linejoin: miter; stroke-miterlimit: 4; fill: rgb(106,108,153); fill-rule: nonzero; opacity: 1;" vector-effect="non-scaling-stroke"  transform=" translate(0, 0)" d="M -120.00027 60 L -40.00027 -100 L -0.25027000000000044 -20.5 L 59.46081 -20.5 L 80.00027 -60 L 100.00027 -60 L 79.21081000000001 -20 L 120.00027 -20 L 120.00027 0 L 69.21081000000001 0 L 39.605270000000004 59.21108 L 20.000270000000004 100 L 0.00027000000000398927 100 L 20.000270000000004 60 L -10.289189999999994 0 L -70.00027 0 L -100.00027 60 z M -60.12527 -19.75 L -20.164189999999998 -19.75 L -40.144729999999996 -59.71108 z M 49.56637 0 L 9.62473 -0.75 L 29.60527 39.21108 z" stroke-linecap="round" />
</g>
<g transform="matrix(1 0 0 1 96.25 129.75)" id="pM45OEdaf8FBiKlerbJHl"  >
<path style="stroke: rgb(0,0,0); stroke-width: 1; stroke-dasharray: none; stroke-linecap: butt; stroke-dashoffset: 0; stroke-linejoin: miter; stroke-miterlimit: 4; fill: rgb(255,255,255); fill-opacity: 0; fill-rule: nonzero; opacity: 1;" vector-effect="non-scaling-stroke"  transform=" translate(0, 0)" d="M 0 0" stroke-linecap="round" />
</g>
<g transform="matrix(1 0 0 1 209.68 169.75)" id="NnQiiYCkk_ygQavxCpfSw"  >
<path style="stroke: rgb(254,96,81); stroke-width: 0; stroke-dasharray: none; stroke-linecap: butt; stroke-dashoffset: 0; stroke-linejoin: miter; stroke-miterlimit: 4; fill: rgb(0,0,0); fill-rule: nonzero; opacity: 1;" vector-effect="non-scaling-stroke"  transform=" translate(0, 0)" d="M -59.87724 -40.5 L -0.16615999999999786 -40.5 L 20.3733 -80 L 40.3733 -80 L 19.583840000000002 -40 L 60.3733 -40 L 60.3733 -20 L 9.583840000000002 -20 L -20.0217 39.21108 L -39.6267 80 L -58.31558 80 L -19.882169999999995 -0.7067499999999995 L -10.060599999999996 -20 L -10.688899999999995 -20.0118 L -10.437859999999995 -20.53896 L -51.37329999999999 -20 L -60.37329999999999 -41.49213 z M -59.6267 80 L -59.21336 79.17331 L -58.84079 80 z" stroke-linecap="round" />
</g>
<g transform="matrix(1 0 0 1 150.05 135.75)" id="LCJtvKgVe46uFDJS5Wxkg"  >
<path style="stroke: rgb(0,0,0); stroke-width: 0; stroke-dasharray: none; stroke-linecap: butt; stroke-dashoffset: 0; stroke-linejoin: miter; stroke-miterlimit: 4; fill: rgb(184,225,243); fill-rule: nonzero; opacity: 1;" vector-effect="non-scaling-stroke"  transform=" translate(0, 0)" d="M -34.625 -89.5 L 5.125 -10 L 84.375 -10 L 34.625 89.5 L -5.125 10 L -84.375 10 z M 15.125 10 L 14.875 10 L 34.625 49.5 L 54.75 9.25 L 14.75 9.25 z M -34.625 -49.5 L -54.75 -9.25 L -14.75 -9.25 L -15.125 -10 L -14.875 -10 z" stroke-linecap="round" />
</g>
</svg>